<svg xmlns="http://www.w3.org/2000/svg" xmlns:xlink="http://www.w3.org/1999/xlink" width="500" zoomAndPan="magnify" viewBox="0 0 375 374.999991" height="500" preserveAspectRatio="xMidYMid meet" version="1.0"><defs><g/><clipPath id="173ce1fcf4"><path d="M 144 71 L 253 71 L 253 197.902344 L 144 197.902344 Z M 144 71 " clip-rule="nonzero"/></clipPath></defs><g clip-path="url(#173ce1fcf4)"><path fill="#000000" d="M 223.238281 86.171875 C 220.0625 76.847656 208.105469 80.679688 201 79.421875 C 195.121094 78.378906 189.828125 74.035156 183.964844 72.519531 C 172.875 69.648438 156.882812 75.082031 150.625 84.753906 C 144.246094 94.605469 143.601562 108.664062 146.21875 119.785156 C 147.179688 123.875 149.414062 127.53125 150.414062 131.621094 C 152.257812 139.1875 153.003906 148.929688 152.601562 156.714844 C 152.230469 163.933594 143.476562 175.488281 147.753906 182.277344 C 150.265625 186.261719 155.753906 188.316406 159.828125 190.222656 C 170.882812 195.394531 182.738281 197.109375 194.769531 197.101562 C 199.242188 197.101562 207.664062 195.675781 211.257812 192.695312 C 213.136719 191.140625 212.695312 187.765625 212.964844 185.59375 C 213.679688 179.84375 213.710938 172.695312 216.65625 167.601562 C 223.996094 154.914062 233.28125 143.324219 241.441406 131.148438 C 245.152344 125.613281 250.289062 119.308594 251.855469 112.683594 C 253.484375 105.789062 252.847656 94.902344 247.667969 89.648438 C 241.578125 83.472656 231.980469 83.699219 224.339844 85.964844 M 196.265625 80.492188 C 187.042969 83.363281 180.664062 97.417969 180.652344 106.53125 C 180.539062 109.457031 179.515625 114.800781 182.542969 116.472656 C 181.21875 105.992188 183.292969 90.308594 193.035156 83.875 C 199.75 79.441406 215.007812 78.707031 220.691406 85.277344 C 224.214844 89.351562 224.242188 95.765625 223.625 100.851562 C 222.621094 109.140625 215.601562 114.589844 212.355469 121.679688 C 218.277344 120.011719 225.074219 106.808594 225.382812 100.851562 C 225.695312 94.859375 222.84375 88.632812 230.339844 86.613281 C 245.320312 82.578125 250.621094 96.339844 250.039062 108.21875 C 249.394531 112.632812 246.925781 119.261719 244.507812 123.101562 C 239.09375 131.699219 233.777344 141.03125 227.050781 148.664062 C 224.902344 151.101562 218.515625 161.6875 214.542969 156.894531 C 213.183594 155.257812 214.945312 152.957031 215.816406 151.507812 C 218.816406 146.496094 222.226562 141.921875 225.132812 136.828125 C 219.320312 139.691406 218.03125 149.273438 211.882812 152.921875 C 208.660156 154.832031 202.257812 151.996094 201.621094 148.183594 C 200.972656 144.285156 203.363281 139.132812 205.257812 135.882812 C 201.011719 139.019531 202.082031 144.988281 198.449219 147.839844 C 196.542969 149.332031 193.070312 148.214844 191.011719 147.703125 C 188.796875 147.152344 185.378906 146.898438 183.777344 145.109375 C 182.582031 143.777344 183.019531 141.3125 183.015625 139.671875 C 183.011719 135.980469 182.535156 132.335938 181.597656 128.78125 C 181.597656 128.78125 182.65625 140.734375 180.246094 143.78125 C 177.957031 146.667969 168.605469 145.765625 167.886719 142.5 L 166.925781 131.621094 C 165.683594 135.039062 166.765625 138.71875 165.523438 142.027344 C 164.773438 144.023438 160.503906 146.828125 159.167969 143.855469 C 157.960938 141.167969 158.640625 136.472656 158.359375 133.515625 C 157.96875 129.390625 156.613281 124.769531 155.570312 120.734375 C 155.570312 120.734375 156.917969 133.257812 156.988281 139.195312 C 157.019531 141.78125 156.242188 147.542969 154.464844 144.882812 C 152.5 139.773438 153.113281 136.707031 151.832031 131.457031 C 150.871094 127.519531 148.757812 122.75 147.75 118.839844 C 145.117188 108.589844 146.175781 96.410156 151.472656 87.121094 C 158.292969 75.152344 176.675781 70.4375 188.695312 76.109375 C 191.195312 77.289062 194.703125 78.101562 196.265625 80.492188 M 166.453125 99.429688 L 166.824219 100.058594 C 167.382812 93.035156 171.847656 83.6875 179.230469 81.914062 C 171.949219 78.882812 164.03125 93.570312 166.453125 99.429688 M 235.542969 94.222656 C 237.109375 98.042969 238.640625 101.558594 237.84375 105.816406 C 237.542969 109.210938 235.355469 113.121094 234.597656 116.472656 C 239.5625 112.339844 241.898438 98.46875 235.542969 94.222656 M 211.410156 187.957031 C 193.722656 178.648438 168.171875 173.75 148.472656 178.964844 C 148.808594 171.578125 153.523438 165.058594 154.105469 157.660156 C 154.304688 155.152344 153.46875 150.539062 155.378906 148.523438 C 158.300781 145.433594 165.4375 146.253906 169.292969 146.300781 C 181.992188 146.449219 195.964844 148.820312 207.152344 155.089844 C 209.996094 156.6875 214.503906 158.136719 216.320312 160.992188 C 217.941406 163.535156 214.769531 166.636719 213.945312 169.023438 C 212.050781 174.519531 211.414062 182.136719 211.410156 187.957031 M 207.324219 188.542969 C 209.617188 189.996094 211.058594 191.164062 209.0625 192.375 C 197.378906 197.921875 183.554688 195.128906 171.660156 190.882812 C 168.597656 189.789062 159.773438 187.59375 160.085938 183.246094 C 160.421875 178.65625 168.023438 179.386719 170.929688 179.386719 C 183.578125 179.910156 195.785156 182.289062 207.324219 188.542969 Z M 207.324219 188.542969 " fill-opacity="1" fill-rule="nonzero"/></g><g fill="#000000" fill-opacity="1"><g transform="translate(71.491567, 240.090271)"><g><path d="M 7.421875 -2.96875 C 7.421875 -2.363281 7.46875 -1.925781 7.5625 -1.65625 C 7.65625 -1.382812 7.835938 -1.203125 8.109375 -1.109375 C 8.378906 -1.015625 8.816406 -0.96875 9.421875 -0.96875 L 10.609375 -0.96875 C 12.421875 -0.96875 13.988281 -1.453125 15.3125 -2.421875 C 16.632812 -3.390625 17.515625 -4.695312 17.953125 -6.34375 C 17.953125 -6.394531 18 -6.421875 18.09375 -6.421875 C 18.144531 -6.421875 18.195312 -6.398438 18.25 -6.359375 C 18.3125 -6.328125 18.34375 -6.300781 18.34375 -6.28125 C 18.132812 -3.976562 18.03125 -2.054688 18.03125 -0.515625 C 18.03125 -0.335938 17.988281 -0.207031 17.90625 -0.125 C 17.820312 -0.0390625 17.6875 0 17.5 0 L 1.046875 0 C 0.992188 0 0.96875 -0.0664062 0.96875 -0.203125 C 0.96875 -0.347656 0.992188 -0.421875 1.046875 -0.421875 C 1.785156 -0.421875 2.320312 -0.476562 2.65625 -0.59375 C 3 -0.707031 3.234375 -0.929688 3.359375 -1.265625 C 3.492188 -1.609375 3.5625 -2.128906 3.5625 -2.828125 L 3.5625 -18.96875 C 3.5625 -19.664062 3.492188 -20.175781 3.359375 -20.5 C 3.234375 -20.832031 2.992188 -21.0625 2.640625 -21.1875 C 2.296875 -21.3125 1.765625 -21.375 1.046875 -21.375 C 0.992188 -21.375 0.96875 -21.441406 0.96875 -21.578125 C 0.96875 -21.722656 0.992188 -21.796875 1.046875 -21.796875 L 2.828125 -21.765625 C 3.890625 -21.710938 4.769531 -21.6875 5.46875 -21.6875 C 6.164062 -21.6875 7.050781 -21.710938 8.125 -21.765625 L 9.90625 -21.796875 C 9.976562 -21.796875 10.015625 -21.722656 10.015625 -21.578125 C 10.015625 -21.441406 9.976562 -21.375 9.90625 -21.375 C 9.1875 -21.375 8.648438 -21.3125 8.296875 -21.1875 C 7.953125 -21.0625 7.71875 -20.828125 7.59375 -20.484375 C 7.476562 -20.148438 7.421875 -19.632812 7.421875 -18.9375 Z M 7.421875 -2.96875 "/></g></g></g><g fill="#000000" fill-opacity="1"><g transform="translate(90.501121, 240.090271)"><g><path d="M 13.53125 -2.296875 C 13.570312 -2.296875 13.625 -2.25 13.6875 -2.15625 C 13.75 -2.0625 13.753906 -1.992188 13.703125 -1.953125 C 12.847656 -1.117188 11.976562 -0.515625 11.09375 -0.140625 C 10.207031 0.234375 9.242188 0.421875 8.203125 0.421875 C 6.734375 0.421875 5.460938 0.113281 4.390625 -0.5 C 3.328125 -1.125 2.515625 -1.953125 1.953125 -2.984375 C 1.390625 -4.015625 1.109375 -5.132812 1.109375 -6.34375 C 1.109375 -7.695312 1.445312 -8.941406 2.125 -10.078125 C 2.800781 -11.210938 3.738281 -12.113281 4.9375 -12.78125 C 6.132812 -13.445312 7.488281 -13.78125 9 -13.78125 C 10.4375 -13.78125 11.550781 -13.453125 12.34375 -12.796875 C 13.132812 -12.148438 13.53125 -11.140625 13.53125 -9.765625 C 13.53125 -9.046875 13.398438 -8.6875 13.140625 -8.6875 L 4.671875 -8.65625 C 4.648438 -8.488281 4.640625 -8.21875 4.640625 -7.84375 C 4.640625 -5.800781 5.109375 -4.195312 6.046875 -3.03125 C 6.992188 -1.875 8.347656 -1.296875 10.109375 -1.296875 C 10.742188 -1.296875 11.28125 -1.363281 11.71875 -1.5 C 12.15625 -1.632812 12.738281 -1.890625 13.46875 -2.265625 Z M 7.671875 -13.078125 C 6.898438 -13.078125 6.257812 -12.742188 5.75 -12.078125 C 5.238281 -11.421875 4.90625 -10.507812 4.75 -9.34375 L 9.796875 -9.421875 C 9.773438 -10.597656 9.597656 -11.5 9.265625 -12.125 C 8.941406 -12.757812 8.410156 -13.078125 7.671875 -13.078125 Z M 7.671875 -13.078125 "/></g></g></g><g fill="#000000" fill-opacity="1"><g transform="translate(105.080923, 240.090271)"><g/></g></g><g fill="#000000" fill-opacity="1"><g transform="translate(113.24283, 240.090271)"><g><path d="M 25.984375 6.25 C 26.054688 6.21875 26.109375 6.257812 26.140625 6.375 C 26.171875 6.5 26.164062 6.570312 26.125 6.59375 C 25.164062 6.875 24.222656 7.015625 23.296875 7.015625 C 21.503906 7.015625 19.65625 6.429688 17.75 5.265625 C 15.84375 4.097656 14.203125 2.484375 12.828125 0.421875 L 12.765625 0.421875 C 10.597656 0.421875 8.671875 -0.0820312 6.984375 -1.09375 C 5.304688 -2.101562 4.003906 -3.472656 3.078125 -5.203125 C 2.160156 -6.941406 1.703125 -8.832031 1.703125 -10.875 C 1.703125 -13.269531 2.304688 -15.320312 3.515625 -17.03125 C 4.722656 -18.738281 6.273438 -20.023438 8.171875 -20.890625 C 10.066406 -21.753906 12.003906 -22.1875 13.984375 -22.1875 C 16.191406 -22.1875 18.128906 -21.664062 19.796875 -20.625 C 21.472656 -19.59375 22.757812 -18.226562 23.65625 -16.53125 C 24.550781 -14.832031 25 -13.03125 25 -11.125 C 25 -8.6875 24.269531 -6.488281 22.8125 -4.53125 C 21.363281 -2.582031 19.476562 -1.1875 17.15625 -0.34375 C 18.0625 1.601562 19.226562 3.195312 20.65625 4.4375 C 22.09375 5.6875 23.460938 6.3125 24.765625 6.3125 C 25.160156 6.3125 25.566406 6.289062 25.984375 6.25 Z M 6 -12.171875 C 6 -9.910156 6.34375 -7.890625 7.03125 -6.109375 C 7.71875 -4.335938 8.65625 -2.953125 9.84375 -1.953125 C 11.039062 -0.953125 12.398438 -0.453125 13.921875 -0.453125 C 15.222656 -0.453125 16.390625 -0.828125 17.421875 -1.578125 C 18.453125 -2.335938 19.257812 -3.441406 19.84375 -4.890625 C 20.425781 -6.347656 20.71875 -8.085938 20.71875 -10.109375 C 20.71875 -12.253906 20.390625 -14.164062 19.734375 -15.84375 C 19.085938 -17.53125 18.144531 -18.847656 16.90625 -19.796875 C 15.675781 -20.753906 14.238281 -21.234375 12.59375 -21.234375 C 10.476562 -21.234375 8.847656 -20.4375 7.703125 -18.84375 C 6.566406 -17.257812 6 -15.035156 6 -12.171875 Z M 6 -12.171875 "/></g></g></g><g fill="#000000" fill-opacity="1"><g transform="translate(139.960852, 240.090271)"><g><path d="M 17.40625 -2.265625 C 17.46875 -2.265625 17.53125 -2.207031 17.59375 -2.09375 C 17.65625 -1.976562 17.648438 -1.910156 17.578125 -1.890625 L 12.765625 0.453125 C 12.710938 0.472656 12.65625 0.484375 12.59375 0.484375 C 12.351562 0.484375 12.144531 0.234375 11.96875 -0.265625 C 11.800781 -0.765625 11.707031 -1.441406 11.6875 -2.296875 C 10.144531 -0.484375 8.484375 0.421875 6.703125 0.421875 C 5.421875 0.421875 4.410156 0.0195312 3.671875 -0.78125 C 2.941406 -1.582031 2.578125 -2.632812 2.578125 -3.9375 L 2.578125 -9.0625 C 2.578125 -10.570312 2.21875 -11.328125 1.5 -11.328125 C 1.238281 -11.328125 0.945312 -11.25 0.625 -11.09375 L 0.59375 -11.09375 C 0.5 -11.09375 0.425781 -11.15625 0.375 -11.28125 C 0.332031 -11.40625 0.347656 -11.484375 0.421875 -11.515625 L 5.09375 -13.734375 L 5.265625 -13.78125 C 5.378906 -13.78125 5.5 -13.726562 5.625 -13.625 C 5.757812 -13.519531 5.828125 -13.421875 5.828125 -13.328125 L 5.828125 -5.609375 C 5.828125 -3.097656 6.789062 -1.84375 8.71875 -1.84375 C 9.226562 -1.84375 9.742188 -1.953125 10.265625 -2.171875 C 10.796875 -2.398438 11.269531 -2.710938 11.6875 -3.109375 L 11.6875 -9.0625 C 11.6875 -10.570312 11.328125 -11.328125 10.609375 -11.328125 C 10.347656 -11.328125 10.039062 -11.25 9.6875 -11.09375 L 9.65625 -11.09375 C 9.59375 -11.09375 9.535156 -11.15625 9.484375 -11.28125 C 9.441406 -11.40625 9.453125 -11.484375 9.515625 -11.515625 L 14.1875 -13.734375 C 14.238281 -13.765625 14.300781 -13.78125 14.375 -13.78125 C 14.488281 -13.78125 14.609375 -13.726562 14.734375 -13.625 C 14.859375 -13.519531 14.921875 -13.421875 14.921875 -13.328125 L 14.921875 -4.046875 C 14.921875 -3.253906 14.992188 -2.695312 15.140625 -2.375 C 15.296875 -2.050781 15.550781 -1.890625 15.90625 -1.890625 C 16.226562 -1.890625 16.703125 -2.015625 17.328125 -2.265625 Z M 17.40625 -2.265625 "/></g></g></g><g fill="#000000" fill-opacity="1"><g transform="translate(157.575212, 240.090271)"><g><path d="M 14.609375 -1.890625 C 14.703125 -1.890625 14.765625 -1.832031 14.796875 -1.71875 C 14.835938 -1.613281 14.8125 -1.539062 14.71875 -1.5 L 11.125 0.203125 C 11.03125 0.253906 10.914062 0.28125 10.78125 0.28125 C 10.40625 0.28125 10.046875 0.0820312 9.703125 -0.3125 C 9.367188 -0.707031 9.132812 -1.242188 9 -1.921875 L 7.5 -0.875 C 6.96875 -0.476562 6.46875 -0.191406 6 -0.015625 C 5.53125 0.160156 5.003906 0.25 4.421875 0.25 C 3.421875 0.25 2.664062 0.03125 2.15625 -0.40625 C 1.644531 -0.851562 1.390625 -1.472656 1.390625 -2.265625 C 1.390625 -2.890625 1.539062 -3.394531 1.84375 -3.78125 C 2.144531 -4.164062 2.519531 -4.46875 2.96875 -4.6875 C 3.425781 -4.90625 4.0625 -5.15625 4.875 -5.4375 L 5.75 -5.75 L 8.890625 -6.90625 L 8.890625 -8.890625 C 8.890625 -10.378906 8.765625 -11.457031 8.515625 -12.125 C 8.273438 -12.800781 7.863281 -13.140625 7.28125 -13.140625 C 6.050781 -13.140625 5.359375 -12.1875 5.203125 -10.28125 C 5.128906 -9.582031 4.921875 -9.082031 4.578125 -8.78125 C 4.242188 -8.476562 3.773438 -8.328125 3.171875 -8.328125 C 2.585938 -8.328125 2.160156 -8.445312 1.890625 -8.6875 C 1.628906 -8.9375 1.5 -9.257812 1.5 -9.65625 C 1.5 -10.351562 1.90625 -11.019531 2.71875 -11.65625 C 3.53125 -12.300781 4.507812 -12.820312 5.65625 -13.21875 C 6.8125 -13.613281 7.832031 -13.8125 8.71875 -13.8125 C 9.738281 -13.8125 10.566406 -13.488281 11.203125 -12.84375 C 11.847656 -12.207031 12.171875 -11.238281 12.171875 -9.9375 L 12.171875 -3.765625 C 12.171875 -3.085938 12.289062 -2.5625 12.53125 -2.1875 C 12.78125 -1.820312 13.125 -1.640625 13.5625 -1.640625 C 13.882812 -1.640625 14.222656 -1.722656 14.578125 -1.890625 Z M 8.921875 -2.515625 C 8.898438 -2.609375 8.890625 -2.757812 8.890625 -2.96875 L 8.890625 -6.3125 L 7.390625 -5.609375 C 7.316406 -5.585938 7.082031 -5.5 6.6875 -5.34375 C 6.300781 -5.195312 5.960938 -4.945312 5.671875 -4.59375 C 5.378906 -4.25 5.234375 -3.847656 5.234375 -3.390625 C 5.234375 -2.828125 5.410156 -2.390625 5.765625 -2.078125 C 6.128906 -1.765625 6.546875 -1.609375 7.015625 -1.609375 C 7.378906 -1.609375 7.757812 -1.734375 8.15625 -1.984375 Z M 8.921875 -2.515625 "/></g></g></g><g fill="#000000" fill-opacity="1"><g transform="translate(172.259661, 240.090271)"><g><path d="M 4.703125 -17.265625 C 4.035156 -17.265625 3.515625 -17.445312 3.140625 -17.8125 C 2.765625 -18.1875 2.578125 -18.710938 2.578125 -19.390625 C 2.578125 -19.992188 2.769531 -20.472656 3.15625 -20.828125 C 3.539062 -21.191406 4.054688 -21.375 4.703125 -21.375 C 5.359375 -21.375 5.859375 -21.195312 6.203125 -20.84375 C 6.554688 -20.5 6.734375 -20.015625 6.734375 -19.390625 C 6.734375 -18.710938 6.554688 -18.1875 6.203125 -17.8125 C 5.859375 -17.445312 5.359375 -17.265625 4.703125 -17.265625 Z M 1.359375 0 C 1.285156 0 1.25 -0.0664062 1.25 -0.203125 C 1.25 -0.347656 1.285156 -0.421875 1.359375 -0.421875 C 2.078125 -0.421875 2.5625 -0.585938 2.8125 -0.921875 C 3.070312 -1.265625 3.203125 -1.898438 3.203125 -2.828125 L 3.203125 -9.0625 C 3.203125 -9.851562 3.117188 -10.421875 2.953125 -10.765625 C 2.796875 -11.117188 2.53125 -11.296875 2.15625 -11.296875 C 1.851562 -11.296875 1.425781 -11.171875 0.875 -10.921875 L 0.84375 -10.921875 C 0.75 -10.921875 0.675781 -10.984375 0.625 -11.109375 C 0.582031 -11.234375 0.59375 -11.304688 0.65625 -11.328125 L 5.921875 -13.78125 L 6.03125 -13.8125 C 6.144531 -13.8125 6.257812 -13.753906 6.375 -13.640625 C 6.5 -13.523438 6.5625 -13.421875 6.5625 -13.328125 L 6.5625 -12.5625 C 6.507812 -11.625 6.484375 -10.484375 6.484375 -9.140625 L 6.484375 -2.828125 C 6.484375 -1.898438 6.613281 -1.265625 6.875 -0.921875 C 7.144531 -0.585938 7.644531 -0.421875 8.375 -0.421875 C 8.4375 -0.421875 8.46875 -0.347656 8.46875 -0.203125 C 8.46875 -0.0664062 8.4375 0 8.375 0 C 7.769531 0 7.289062 -0.0078125 6.9375 -0.03125 L 4.84375 -0.0625 L 2.796875 -0.03125 C 2.441406 -0.0078125 1.960938 0 1.359375 0 Z M 1.359375 0 "/></g></g></g><g fill="#000000" fill-opacity="1"><g transform="translate(181.433079, 240.090271)"><g/></g></g><g fill="#000000" fill-opacity="1"><g transform="translate(189.594985, 240.090271)"><g><path d="M 25 -0.421875 C 25.125 -0.421875 25.1875 -0.347656 25.1875 -0.203125 C 25.1875 -0.0664062 25.125 0 25 0 C 24.539062 0 23.820312 -0.0195312 22.84375 -0.0625 C 21.820312 -0.113281 21.085938 -0.140625 20.640625 -0.140625 C 20.066406 -0.140625 19.359375 -0.113281 18.515625 -0.0625 C 17.722656 -0.0195312 17.097656 0 16.640625 0 C 16.546875 0 16.5 -0.0664062 16.5 -0.203125 C 16.5 -0.347656 16.546875 -0.421875 16.640625 -0.421875 C 17.242188 -0.421875 17.675781 -0.484375 17.9375 -0.609375 C 18.207031 -0.734375 18.34375 -0.960938 18.34375 -1.296875 C 18.34375 -1.691406 18.109375 -2.351562 17.640625 -3.28125 L 15.28125 -7.984375 L 6.703125 -7.984375 L 5.328125 -4.953125 C 5.023438 -4.273438 4.875 -3.644531 4.875 -3.0625 C 4.875 -2.226562 5.171875 -1.578125 5.765625 -1.109375 C 6.359375 -0.648438 7.15625 -0.421875 8.15625 -0.421875 C 8.269531 -0.421875 8.328125 -0.347656 8.328125 -0.203125 C 8.328125 -0.0664062 8.269531 0 8.15625 0 C 7.738281 0 7.132812 -0.0195312 6.34375 -0.0625 C 5.457031 -0.113281 4.691406 -0.140625 4.046875 -0.140625 C 3.421875 -0.140625 2.664062 -0.113281 1.78125 -0.0625 C 0.988281 -0.0195312 0.347656 0 -0.140625 0 C -0.234375 0 -0.28125 -0.0664062 -0.28125 -0.203125 C -0.28125 -0.347656 -0.234375 -0.421875 -0.140625 -0.421875 C 0.515625 -0.421875 1.0625 -0.550781 1.5 -0.8125 C 1.9375 -1.082031 2.375 -1.5625 2.8125 -2.25 C 3.257812 -2.9375 3.785156 -3.953125 4.390625 -5.296875 L 11.96875 -21.9375 C 12.007812 -22.007812 12.113281 -22.046875 12.28125 -22.046875 C 12.46875 -22.046875 12.570312 -22.007812 12.59375 -21.9375 L 21.3125 -4.78125 C 22.125 -3.125 22.796875 -1.984375 23.328125 -1.359375 C 23.867188 -0.734375 24.425781 -0.421875 25 -0.421875 Z M 7.15625 -8.96875 L 14.75 -8.96875 L 10.734375 -16.921875 Z M 7.15625 -8.96875 "/></g></g></g><g fill="#000000" fill-opacity="1"><g transform="translate(214.569009, 240.090271)"><g><path d="M 17.75 -0.421875 C 17.820312 -0.421875 17.859375 -0.347656 17.859375 -0.203125 C 17.859375 -0.0664062 17.820312 0 17.75 0 C 17.144531 0 16.671875 -0.0078125 16.328125 -0.03125 L 14.234375 -0.0625 L 12.203125 -0.03125 C 11.828125 -0.0078125 11.335938 0 10.734375 0 C 10.671875 0 10.640625 -0.0664062 10.640625 -0.203125 C 10.640625 -0.347656 10.671875 -0.421875 10.734375 -0.421875 C 11.460938 -0.421875 11.953125 -0.585938 12.203125 -0.921875 C 12.460938 -1.265625 12.59375 -1.898438 12.59375 -2.828125 L 12.59375 -7.84375 C 12.59375 -9.101562 12.363281 -10.035156 11.90625 -10.640625 C 11.457031 -11.242188 10.742188 -11.546875 9.765625 -11.546875 C 9.203125 -11.546875 8.625 -11.425781 8.03125 -11.1875 C 7.445312 -10.957031 6.929688 -10.644531 6.484375 -10.25 L 6.484375 -2.828125 C 6.484375 -1.898438 6.613281 -1.265625 6.875 -0.921875 C 7.144531 -0.585938 7.644531 -0.421875 8.375 -0.421875 C 8.4375 -0.421875 8.46875 -0.347656 8.46875 -0.203125 C 8.46875 -0.0664062 8.4375 0 8.375 0 C 7.769531 0 7.289062 -0.0078125 6.9375 -0.03125 L 4.84375 -0.0625 L 2.796875 -0.03125 C 2.441406 -0.0078125 1.960938 0 1.359375 0 C 1.285156 0 1.25 -0.0664062 1.25 -0.203125 C 1.25 -0.347656 1.285156 -0.421875 1.359375 -0.421875 C 2.078125 -0.421875 2.5625 -0.585938 2.8125 -0.921875 C 3.070312 -1.265625 3.203125 -1.898438 3.203125 -2.828125 L 3.203125 -9.375 C 3.203125 -10.101562 3.113281 -10.632812 2.9375 -10.96875 C 2.769531 -11.300781 2.5 -11.46875 2.125 -11.46875 C 1.726562 -11.46875 1.171875 -11.304688 0.453125 -10.984375 L 0.390625 -10.984375 C 0.316406 -10.984375 0.257812 -11.039062 0.21875 -11.15625 C 0.1875 -11.269531 0.195312 -11.34375 0.25 -11.375 L 5.09375 -13.734375 C 5.226562 -13.785156 5.304688 -13.8125 5.328125 -13.8125 C 5.585938 -13.8125 5.832031 -13.5625 6.0625 -13.0625 C 6.300781 -12.5625 6.441406 -11.878906 6.484375 -11.015625 C 8.085938 -12.921875 9.851562 -13.875 11.78125 -13.875 C 13.039062 -13.875 14.035156 -13.472656 14.765625 -12.671875 C 15.503906 -11.867188 15.875 -10.816406 15.875 -9.515625 L 15.875 -2.828125 C 15.875 -1.898438 16.003906 -1.265625 16.265625 -0.921875 C 16.535156 -0.585938 17.03125 -0.421875 17.75 -0.421875 Z M 17.75 -0.421875 "/></g></g></g><g fill="#000000" fill-opacity="1"><g transform="translate(232.915845, 240.090271)"><g><path d="M 11.296875 -2.4375 C 11.390625 -2.4375 11.460938 -2.390625 11.515625 -2.296875 C 11.578125 -2.203125 11.578125 -2.132812 11.515625 -2.09375 C 10.648438 -1.226562 9.8125 -0.59375 9 -0.1875 C 8.1875 0.21875 7.328125 0.421875 6.421875 0.421875 C 5.390625 0.421875 4.515625 0.175781 3.796875 -0.3125 C 3.078125 -0.800781 2.71875 -1.628906 2.71875 -2.796875 L 2.71875 -10.53125 C 2.71875 -11.25 2.585938 -11.75 2.328125 -12.03125 C 2.078125 -12.3125 1.613281 -12.453125 0.9375 -12.453125 C 0.914062 -12.453125 0.882812 -12.484375 0.84375 -12.546875 C 0.8125 -12.617188 0.796875 -12.691406 0.796875 -12.765625 C 0.796875 -12.859375 0.804688 -12.929688 0.828125 -12.984375 C 0.859375 -13.046875 0.894531 -13.078125 0.9375 -13.078125 C 2.125 -13.117188 3.082031 -13.375 3.8125 -13.84375 C 4.550781 -14.3125 5.117188 -15.019531 5.515625 -15.96875 C 5.554688 -16.0625 5.648438 -16.109375 5.796875 -16.109375 C 5.953125 -16.109375 6.03125 -16.0625 6.03125 -15.96875 L 6.03125 -13.1875 C 7.382812 -13.207031 8.894531 -13.3125 10.5625 -13.5 C 10.613281 -13.5 10.664062 -13.410156 10.71875 -13.234375 C 10.78125 -13.054688 10.8125 -12.863281 10.8125 -12.65625 C 10.8125 -12.425781 10.769531 -12.195312 10.6875 -11.96875 C 10.601562 -11.75 10.515625 -11.65625 10.421875 -11.6875 C 8.910156 -12.007812 7.445312 -12.179688 6.03125 -12.203125 L 6.03125 -3.9375 C 6.03125 -3.050781 6.253906 -2.398438 6.703125 -1.984375 C 7.160156 -1.566406 7.765625 -1.359375 8.515625 -1.359375 C 9.441406 -1.359375 10.347656 -1.707031 11.234375 -2.40625 Z M 11.296875 -2.4375 "/></g></g></g><g fill="#000000" fill-opacity="1"><g transform="translate(244.635504, 240.090271)"><g><path d="M 4.703125 -17.265625 C 4.035156 -17.265625 3.515625 -17.445312 3.140625 -17.8125 C 2.765625 -18.1875 2.578125 -18.710938 2.578125 -19.390625 C 2.578125 -19.992188 2.769531 -20.472656 3.15625 -20.828125 C 3.539062 -21.191406 4.054688 -21.375 4.703125 -21.375 C 5.359375 -21.375 5.859375 -21.195312 6.203125 -20.84375 C 6.554688 -20.5 6.734375 -20.015625 6.734375 -19.390625 C 6.734375 -18.710938 6.554688 -18.1875 6.203125 -17.8125 C 5.859375 -17.445312 5.359375 -17.265625 4.703125 -17.265625 Z M 1.359375 0 C 1.285156 0 1.25 -0.0664062 1.25 -0.203125 C 1.25 -0.347656 1.285156 -0.421875 1.359375 -0.421875 C 2.078125 -0.421875 2.5625 -0.585938 2.8125 -0.921875 C 3.070312 -1.265625 3.203125 -1.898438 3.203125 -2.828125 L 3.203125 -9.0625 C 3.203125 -9.851562 3.117188 -10.421875 2.953125 -10.765625 C 2.796875 -11.117188 2.53125 -11.296875 2.15625 -11.296875 C 1.851562 -11.296875 1.425781 -11.171875 0.875 -10.921875 L 0.84375 -10.921875 C 0.75 -10.921875 0.675781 -10.984375 0.625 -11.109375 C 0.582031 -11.234375 0.59375 -11.304688 0.65625 -11.328125 L 5.921875 -13.78125 L 6.03125 -13.8125 C 6.144531 -13.8125 6.257812 -13.753906 6.375 -13.640625 C 6.5 -13.523438 6.5625 -13.421875 6.5625 -13.328125 L 6.5625 -12.5625 C 6.507812 -11.625 6.484375 -10.484375 6.484375 -9.140625 L 6.484375 -2.828125 C 6.484375 -1.898438 6.613281 -1.265625 6.875 -0.921875 C 7.144531 -0.585938 7.644531 -0.421875 8.375 -0.421875 C 8.4375 -0.421875 8.46875 -0.347656 8.46875 -0.203125 C 8.46875 -0.0664062 8.4375 0 8.375 0 C 7.769531 0 7.289062 -0.0078125 6.9375 -0.03125 L 4.84375 -0.0625 L 2.796875 -0.03125 C 2.441406 -0.0078125 1.960938 0 1.359375 0 Z M 1.359375 0 "/></g></g></g><g fill="#000000" fill-opacity="1"><g transform="translate(253.808922, 240.090271)"><g><path d="M 17.125 9.171875 C 17.195312 9.171875 17.234375 9.238281 17.234375 9.375 C 17.234375 9.519531 17.195312 9.59375 17.125 9.59375 C 16.519531 9.59375 16.03125 9.582031 15.65625 9.5625 L 13.5625 9.515625 L 11.09375 9.5625 C 10.644531 9.582031 10.015625 9.59375 9.203125 9.59375 C 9.160156 9.59375 9.140625 9.519531 9.140625 9.375 C 9.140625 9.238281 9.160156 9.171875 9.203125 9.171875 C 9.992188 9.171875 10.578125 9.101562 10.953125 8.96875 C 11.328125 8.84375 11.582031 8.617188 11.71875 8.296875 C 11.851562 7.972656 11.921875 7.460938 11.921875 6.765625 L 11.921875 -1.953125 C 11.160156 -1.210938 10.382812 -0.625 9.59375 -0.1875 C 8.800781 0.238281 7.90625 0.453125 6.90625 0.453125 C 5.851562 0.453125 4.882812 0.207031 4 -0.28125 C 3.125 -0.769531 2.421875 -1.5 1.890625 -2.46875 C 1.367188 -3.445312 1.109375 -4.632812 1.109375 -6.03125 C 1.109375 -7.707031 1.476562 -9.140625 2.21875 -10.328125 C 2.96875 -11.515625 3.941406 -12.410156 5.140625 -13.015625 C 6.335938 -13.617188 7.597656 -13.921875 8.921875 -13.921875 C 10.878906 -13.921875 12.546875 -13.453125 13.921875 -12.515625 L 16.734375 -13.53125 L 16.8125 -13.5625 C 16.882812 -13.5625 16.929688 -13.503906 16.953125 -13.390625 C 16.972656 -13.273438 16.945312 -13.207031 16.875 -13.1875 C 16.289062 -12.882812 15.859375 -12.5 15.578125 -12.03125 C 15.304688 -11.5625 15.171875 -10.976562 15.171875 -10.28125 L 15.171875 6.765625 C 15.171875 7.460938 15.222656 7.972656 15.328125 8.296875 C 15.429688 8.617188 15.613281 8.84375 15.875 8.96875 C 16.144531 9.101562 16.5625 9.171875 17.125 9.171875 Z M 8.515625 -1.390625 C 9.648438 -1.390625 10.785156 -1.796875 11.921875 -2.609375 L 11.921875 -9.171875 C 11.921875 -10.078125 11.722656 -10.832031 11.328125 -11.4375 C 10.929688 -12.039062 10.441406 -12.484375 9.859375 -12.765625 C 9.285156 -13.046875 8.734375 -13.1875 8.203125 -13.1875 C 7.035156 -13.1875 6.160156 -12.691406 5.578125 -11.703125 C 4.992188 -10.710938 4.703125 -9.273438 4.703125 -7.390625 C 4.703125 -5.367188 5.039062 -3.863281 5.71875 -2.875 C 6.394531 -1.882812 7.328125 -1.390625 8.515625 -1.390625 Z M 8.515625 -1.390625 "/></g></g></g><g fill="#000000" fill-opacity="1"><g transform="translate(271.318636, 240.090271)"><g><path d="M 17.40625 -2.265625 C 17.46875 -2.265625 17.53125 -2.207031 17.59375 -2.09375 C 17.65625 -1.976562 17.648438 -1.910156 17.578125 -1.890625 L 12.765625 0.453125 C 12.710938 0.472656 12.65625 0.484375 12.59375 0.484375 C 12.351562 0.484375 12.144531 0.234375 11.96875 -0.265625 C 11.800781 -0.765625 11.707031 -1.441406 11.6875 -2.296875 C 10.144531 -0.484375 8.484375 0.421875 6.703125 0.421875 C 5.421875 0.421875 4.410156 0.0195312 3.671875 -0.78125 C 2.941406 -1.582031 2.578125 -2.632812 2.578125 -3.9375 L 2.578125 -9.0625 C 2.578125 -10.570312 2.21875 -11.328125 1.5 -11.328125 C 1.238281 -11.328125 0.945312 -11.25 0.625 -11.09375 L 0.59375 -11.09375 C 0.5 -11.09375 0.425781 -11.15625 0.375 -11.28125 C 0.332031 -11.40625 0.347656 -11.484375 0.421875 -11.515625 L 5.09375 -13.734375 L 5.265625 -13.78125 C 5.378906 -13.78125 5.5 -13.726562 5.625 -13.625 C 5.757812 -13.519531 5.828125 -13.421875 5.828125 -13.328125 L 5.828125 -5.609375 C 5.828125 -3.097656 6.789062 -1.84375 8.71875 -1.84375 C 9.226562 -1.84375 9.742188 -1.953125 10.265625 -2.171875 C 10.796875 -2.398438 11.269531 -2.710938 11.6875 -3.109375 L 11.6875 -9.0625 C 11.6875 -10.570312 11.328125 -11.328125 10.609375 -11.328125 C 10.347656 -11.328125 10.039062 -11.25 9.6875 -11.09375 L 9.65625 -11.09375 C 9.59375 -11.09375 9.535156 -11.15625 9.484375 -11.28125 C 9.441406 -11.40625 9.453125 -11.484375 9.515625 -11.515625 L 14.1875 -13.734375 C 14.238281 -13.765625 14.300781 -13.78125 14.375 -13.78125 C 14.488281 -13.78125 14.609375 -13.726562 14.734375 -13.625 C 14.859375 -13.519531 14.921875 -13.421875 14.921875 -13.328125 L 14.921875 -4.046875 C 14.921875 -3.253906 14.992188 -2.695312 15.140625 -2.375 C 15.296875 -2.050781 15.550781 -1.890625 15.90625 -1.890625 C 16.226562 -1.890625 16.703125 -2.015625 17.328125 -2.265625 Z M 17.40625 -2.265625 "/></g></g></g><g fill="#000000" fill-opacity="1"><g transform="translate(288.932996, 240.090271)"><g><path d="M 13.53125 -2.296875 C 13.570312 -2.296875 13.625 -2.25 13.6875 -2.15625 C 13.75 -2.0625 13.753906 -1.992188 13.703125 -1.953125 C 12.847656 -1.117188 11.976562 -0.515625 11.09375 -0.140625 C 10.207031 0.234375 9.242188 0.421875 8.203125 0.421875 C 6.734375 0.421875 5.460938 0.113281 4.390625 -0.5 C 3.328125 -1.125 2.515625 -1.953125 1.953125 -2.984375 C 1.390625 -4.015625 1.109375 -5.132812 1.109375 -6.34375 C 1.109375 -7.695312 1.445312 -8.941406 2.125 -10.078125 C 2.800781 -11.210938 3.738281 -12.113281 4.9375 -12.78125 C 6.132812 -13.445312 7.488281 -13.78125 9 -13.78125 C 10.4375 -13.78125 11.550781 -13.453125 12.34375 -12.796875 C 13.132812 -12.148438 13.53125 -11.140625 13.53125 -9.765625 C 13.53125 -9.046875 13.398438 -8.6875 13.140625 -8.6875 L 4.671875 -8.65625 C 4.648438 -8.488281 4.640625 -8.21875 4.640625 -7.84375 C 4.640625 -5.800781 5.109375 -4.195312 6.046875 -3.03125 C 6.992188 -1.875 8.347656 -1.296875 10.109375 -1.296875 C 10.742188 -1.296875 11.28125 -1.363281 11.71875 -1.5 C 12.15625 -1.632812 12.738281 -1.890625 13.46875 -2.265625 Z M 7.671875 -13.078125 C 6.898438 -13.078125 6.257812 -12.742188 5.75 -12.078125 C 5.238281 -11.421875 4.90625 -10.507812 4.75 -9.34375 L 9.796875 -9.421875 C 9.773438 -10.597656 9.597656 -11.5 9.265625 -12.125 C 8.941406 -12.757812 8.410156 -13.078125 7.671875 -13.078125 Z M 7.671875 -13.078125 "/></g></g></g><g fill="#000000" fill-opacity="1"><g transform="translate(123.670449, 275.188019)"><g><path d="M 4.21875 -5.375 C 4.625 -5.375 4.984375 -5.421875 5.296875 -5.515625 C 5.609375 -5.617188 5.867188 -5.757812 6.078125 -5.9375 C 6.296875 -6.125 6.457031 -6.34375 6.5625 -6.59375 C 6.664062 -6.84375 6.71875 -7.125 6.71875 -7.4375 C 6.71875 -8.050781 6.515625 -8.515625 6.109375 -8.828125 C 5.703125 -9.148438 5.09375 -9.3125 4.28125 -9.3125 L 2.734375 -9.3125 L 2.734375 -5.375 Z M 9.03125 0 L 7.78125 0 C 7.519531 0 7.332031 -0.0976562 7.21875 -0.296875 L 4.515625 -4.015625 C 4.429688 -4.140625 4.34375 -4.222656 4.25 -4.265625 C 4.15625 -4.316406 4.003906 -4.34375 3.796875 -4.34375 L 2.734375 -4.34375 L 2.734375 0 L 1.328125 0 L 1.328125 -10.421875 L 4.28125 -10.421875 C 4.9375 -10.421875 5.503906 -10.351562 5.984375 -10.21875 C 6.460938 -10.082031 6.859375 -9.890625 7.171875 -9.640625 C 7.484375 -9.390625 7.710938 -9.085938 7.859375 -8.734375 C 8.015625 -8.378906 8.09375 -7.976562 8.09375 -7.53125 C 8.09375 -7.164062 8.035156 -6.820312 7.921875 -6.5 C 7.804688 -6.175781 7.632812 -5.890625 7.40625 -5.640625 C 7.1875 -5.390625 6.914062 -5.171875 6.59375 -4.984375 C 6.28125 -4.804688 5.925781 -4.671875 5.53125 -4.578125 C 5.707031 -4.472656 5.863281 -4.328125 6 -4.140625 Z M 9.03125 0 "/></g></g></g><g fill="#000000" fill-opacity="1"><g transform="translate(136.613539, 275.188019)"><g><path d="M 7.765625 -1.15625 L 7.75 0 L 1.328125 0 L 1.328125 -10.421875 L 7.75 -10.421875 L 7.75 -9.28125 L 2.734375 -9.28125 L 2.734375 -5.8125 L 6.796875 -5.8125 L 6.796875 -4.703125 L 2.734375 -4.703125 L 2.734375 -1.15625 Z M 7.765625 -1.15625 "/></g></g></g><g fill="#000000" fill-opacity="1"><g transform="translate(148.844611, 275.188019)"><g><path d="M 6.65625 -8.796875 C 6.613281 -8.722656 6.566406 -8.664062 6.515625 -8.625 C 6.460938 -8.59375 6.398438 -8.578125 6.328125 -8.578125 C 6.253906 -8.578125 6.160156 -8.617188 6.046875 -8.703125 C 5.929688 -8.785156 5.789062 -8.875 5.625 -8.96875 C 5.457031 -9.070312 5.253906 -9.164062 5.015625 -9.25 C 4.785156 -9.332031 4.503906 -9.375 4.171875 -9.375 C 3.847656 -9.375 3.566406 -9.328125 3.328125 -9.234375 C 3.085938 -9.148438 2.882812 -9.035156 2.71875 -8.890625 C 2.5625 -8.742188 2.441406 -8.570312 2.359375 -8.375 C 2.273438 -8.1875 2.234375 -7.976562 2.234375 -7.75 C 2.234375 -7.457031 2.304688 -7.210938 2.453125 -7.015625 C 2.597656 -6.828125 2.785156 -6.664062 3.015625 -6.53125 C 3.253906 -6.394531 3.519531 -6.273438 3.8125 -6.171875 C 4.113281 -6.078125 4.421875 -5.972656 4.734375 -5.859375 C 5.046875 -5.753906 5.351562 -5.632812 5.65625 -5.5 C 5.957031 -5.375 6.222656 -5.207031 6.453125 -5 C 6.691406 -4.800781 6.878906 -4.550781 7.015625 -4.25 C 7.160156 -3.957031 7.234375 -3.59375 7.234375 -3.15625 C 7.234375 -2.707031 7.15625 -2.28125 7 -1.875 C 6.84375 -1.476562 6.613281 -1.128906 6.3125 -0.828125 C 6.019531 -0.535156 5.65625 -0.304688 5.21875 -0.140625 C 4.789062 0.0234375 4.300781 0.109375 3.75 0.109375 C 3.070312 0.109375 2.453125 -0.0078125 1.890625 -0.25 C 1.335938 -0.5 0.867188 -0.832031 0.484375 -1.25 L 0.890625 -1.90625 C 0.929688 -1.96875 0.976562 -2.015625 1.03125 -2.046875 C 1.082031 -2.085938 1.144531 -2.109375 1.21875 -2.109375 C 1.28125 -2.109375 1.347656 -2.082031 1.421875 -2.03125 C 1.503906 -1.976562 1.597656 -1.910156 1.703125 -1.828125 C 1.804688 -1.753906 1.921875 -1.671875 2.046875 -1.578125 C 2.179688 -1.484375 2.332031 -1.394531 2.5 -1.3125 C 2.664062 -1.238281 2.851562 -1.175781 3.0625 -1.125 C 3.28125 -1.070312 3.523438 -1.046875 3.796875 -1.046875 C 4.128906 -1.046875 4.425781 -1.09375 4.6875 -1.1875 C 4.945312 -1.28125 5.164062 -1.410156 5.34375 -1.578125 C 5.53125 -1.742188 5.671875 -1.941406 5.765625 -2.171875 C 5.859375 -2.410156 5.90625 -2.671875 5.90625 -2.953125 C 5.90625 -3.273438 5.832031 -3.535156 5.6875 -3.734375 C 5.550781 -3.929688 5.363281 -4.097656 5.125 -4.234375 C 4.894531 -4.367188 4.628906 -4.484375 4.328125 -4.578125 C 4.035156 -4.679688 3.734375 -4.78125 3.421875 -4.875 C 3.109375 -4.976562 2.800781 -5.09375 2.5 -5.21875 C 2.195312 -5.351562 1.929688 -5.523438 1.703125 -5.734375 C 1.472656 -5.941406 1.285156 -6.203125 1.140625 -6.515625 C 0.992188 -6.828125 0.921875 -7.210938 0.921875 -7.671875 C 0.921875 -8.035156 0.992188 -8.390625 1.140625 -8.734375 C 1.285156 -9.085938 1.492188 -9.394531 1.765625 -9.65625 C 2.035156 -9.925781 2.367188 -10.140625 2.765625 -10.296875 C 3.171875 -10.460938 3.632812 -10.546875 4.15625 -10.546875 C 4.738281 -10.546875 5.265625 -10.453125 5.734375 -10.265625 C 6.210938 -10.078125 6.632812 -9.8125 7 -9.46875 Z M 6.65625 -8.796875 "/></g></g></g><g fill="#000000" fill-opacity="1"><g transform="translate(160.567086, 275.188019)"><g><path d="M 8.375 -9.234375 L 5 -9.234375 L 5 0 L 3.59375 0 L 3.59375 -9.234375 L 0.21875 -9.234375 L 0.21875 -10.421875 L 8.375 -10.421875 Z M 8.375 -9.234375 "/></g></g></g><g fill="#000000" fill-opacity="1"><g transform="translate(172.987054, 275.188019)"><g><path d="M 6.859375 -3.875 L 5.234375 -8.109375 C 5.179688 -8.234375 5.128906 -8.378906 5.078125 -8.546875 C 5.023438 -8.710938 4.972656 -8.890625 4.921875 -9.078125 C 4.816406 -8.691406 4.710938 -8.367188 4.609375 -8.109375 L 2.96875 -3.875 Z M 9.796875 0 L 8.71875 0 C 8.59375 0 8.488281 -0.03125 8.40625 -0.09375 C 8.332031 -0.15625 8.273438 -0.234375 8.234375 -0.328125 L 7.265625 -2.84375 L 2.578125 -2.84375 L 1.609375 -0.328125 C 1.578125 -0.242188 1.519531 -0.164062 1.4375 -0.09375 C 1.351562 -0.03125 1.253906 0 1.140625 0 L 0.046875 0 L 4.21875 -10.421875 L 5.640625 -10.421875 Z M 9.796875 0 "/></g></g></g><g fill="#000000" fill-opacity="1"><g transform="translate(186.663973, 275.188019)"><g><path d="M 5.359375 -1.125 C 5.785156 -1.125 6.164062 -1.195312 6.5 -1.34375 C 6.84375 -1.488281 7.128906 -1.691406 7.359375 -1.953125 C 7.597656 -2.210938 7.78125 -2.523438 7.90625 -2.890625 C 8.03125 -3.253906 8.09375 -3.65625 8.09375 -4.09375 L 8.09375 -10.421875 L 9.5 -10.421875 L 9.5 -4.09375 C 9.5 -3.488281 9.398438 -2.925781 9.203125 -2.40625 C 9.015625 -1.894531 8.742188 -1.453125 8.390625 -1.078125 C 8.035156 -0.703125 7.597656 -0.40625 7.078125 -0.1875 C 6.566406 0.0195312 5.992188 0.125 5.359375 0.125 C 4.710938 0.125 4.128906 0.0195312 3.609375 -0.1875 C 3.097656 -0.40625 2.664062 -0.703125 2.3125 -1.078125 C 1.957031 -1.453125 1.679688 -1.894531 1.484375 -2.40625 C 1.296875 -2.925781 1.203125 -3.488281 1.203125 -4.09375 L 1.203125 -10.421875 L 2.609375 -10.421875 L 2.609375 -4.09375 C 2.609375 -3.65625 2.664062 -3.253906 2.78125 -2.890625 C 2.90625 -2.523438 3.085938 -2.210938 3.328125 -1.953125 C 3.566406 -1.691406 3.851562 -1.488281 4.1875 -1.34375 C 4.53125 -1.195312 4.921875 -1.125 5.359375 -1.125 Z M 5.359375 -1.125 "/></g></g></g><g fill="#000000" fill-opacity="1"><g transform="translate(201.190959, 275.188019)"><g><path d="M 4.21875 -5.375 C 4.625 -5.375 4.984375 -5.421875 5.296875 -5.515625 C 5.609375 -5.617188 5.867188 -5.757812 6.078125 -5.9375 C 6.296875 -6.125 6.457031 -6.34375 6.5625 -6.59375 C 6.664062 -6.84375 6.71875 -7.125 6.71875 -7.4375 C 6.71875 -8.050781 6.515625 -8.515625 6.109375 -8.828125 C 5.703125 -9.148438 5.09375 -9.3125 4.28125 -9.3125 L 2.734375 -9.3125 L 2.734375 -5.375 Z M 9.03125 0 L 7.78125 0 C 7.519531 0 7.332031 -0.0976562 7.21875 -0.296875 L 4.515625 -4.015625 C 4.429688 -4.140625 4.34375 -4.222656 4.25 -4.265625 C 4.15625 -4.316406 4.003906 -4.34375 3.796875 -4.34375 L 2.734375 -4.34375 L 2.734375 0 L 1.328125 0 L 1.328125 -10.421875 L 4.28125 -10.421875 C 4.9375 -10.421875 5.503906 -10.351562 5.984375 -10.21875 C 6.460938 -10.082031 6.859375 -9.890625 7.171875 -9.640625 C 7.484375 -9.390625 7.710938 -9.085938 7.859375 -8.734375 C 8.015625 -8.378906 8.09375 -7.976562 8.09375 -7.53125 C 8.09375 -7.164062 8.035156 -6.820312 7.921875 -6.5 C 7.804688 -6.175781 7.632812 -5.890625 7.40625 -5.640625 C 7.1875 -5.390625 6.914062 -5.171875 6.59375 -4.984375 C 6.28125 -4.804688 5.925781 -4.671875 5.53125 -4.578125 C 5.707031 -4.472656 5.863281 -4.328125 6 -4.140625 Z M 9.03125 0 "/></g></g></g><g fill="#000000" fill-opacity="1"><g transform="translate(214.134049, 275.188019)"><g><path d="M 6.859375 -3.875 L 5.234375 -8.109375 C 5.179688 -8.234375 5.128906 -8.378906 5.078125 -8.546875 C 5.023438 -8.710938 4.972656 -8.890625 4.921875 -9.078125 C 4.816406 -8.691406 4.710938 -8.367188 4.609375 -8.109375 L 2.96875 -3.875 Z M 9.796875 0 L 8.71875 0 C 8.59375 0 8.488281 -0.03125 8.40625 -0.09375 C 8.332031 -0.15625 8.273438 -0.234375 8.234375 -0.328125 L 7.265625 -2.84375 L 2.578125 -2.84375 L 1.609375 -0.328125 C 1.578125 -0.242188 1.519531 -0.164062 1.4375 -0.09375 C 1.351562 -0.03125 1.253906 0 1.140625 0 L 0.046875 0 L 4.21875 -10.421875 L 5.640625 -10.421875 Z M 9.796875 0 "/></g></g></g><g fill="#000000" fill-opacity="1"><g transform="translate(227.810968, 275.188019)"><g><path d="M 9.78125 -10.421875 L 9.78125 0 L 9.0625 0 C 8.957031 0 8.863281 -0.015625 8.78125 -0.046875 C 8.707031 -0.0859375 8.632812 -0.15625 8.5625 -0.25 L 2.53125 -8.109375 C 2.539062 -7.984375 2.546875 -7.863281 2.546875 -7.75 C 2.554688 -7.632812 2.5625 -7.523438 2.5625 -7.421875 L 2.5625 0 L 1.328125 0 L 1.328125 -10.421875 L 2.0625 -10.421875 C 2.125 -10.421875 2.175781 -10.414062 2.21875 -10.40625 C 2.257812 -10.40625 2.296875 -10.394531 2.328125 -10.375 C 2.367188 -10.351562 2.40625 -10.328125 2.4375 -10.296875 C 2.46875 -10.265625 2.503906 -10.226562 2.546875 -10.1875 L 8.578125 -2.328125 C 8.566406 -2.460938 8.554688 -2.585938 8.546875 -2.703125 C 8.535156 -2.816406 8.53125 -2.929688 8.53125 -3.046875 L 8.53125 -10.421875 Z M 9.78125 -10.421875 "/></g></g></g><g fill="#000000" fill-opacity="1"><g transform="translate(242.74482, 275.188019)"><g><path d="M 8.375 -9.234375 L 5 -9.234375 L 5 0 L 3.59375 0 L 3.59375 -9.234375 L 0.21875 -9.234375 L 0.21875 -10.421875 L 8.375 -10.421875 Z M 8.375 -9.234375 "/></g></g></g></svg>